<svg width="116px" height="28px" viewBox="0 0 116 28" version="1.1" xmlns="http://www.w3.org/2000/svg" xmlns:xlink="http://www.w3.org/1999/xlink">
    <!-- Generator: sketchtool 3.6.1 (26313) - http://www.bohemiancoding.com/sketch -->
    <title>FB90528B-E531-4AC6-B900-561ADF143FD6</title>
    <desc>Created with sketchtool.</desc>
    <defs></defs>
    <g id="V1.-LANDING-PAGE" stroke="none" stroke-width="1" fill="none" fill-rule="evenodd">
        <g id="Menu-Fechado" transform="translate(-72.000000, -31.000000)" fill="#181818">
            <g id="Logo-Copy" transform="translate(72.000000, 31.000000)">
                <path d="M6.41470288,21.484751 C4.71938356,21.484751 3.34106381,21.3499913 2.28114012,21.083963 C1.22051819,20.8165382 0.460138151,20.5812324 0,20.3780454 L0,3.54774195 L4.68935937,3.54774195 L4.68935937,8.5994863 C5.00216952,8.28597791 5.71925887,7.97177128 6.26318546,7.65826289 C6.80641381,7.34545273 7.46624772,7.18834942 8.2405925,7.18834942 C9.03239321,7.18834942 9.77880851,7.31752325 10.4798384,7.57587093 C11.1801701,7.8342186 11.7883345,8.24408369 12.3050298,8.80686267 C12.8210269,9.36824518 13.2267026,10.0965063 13.5213586,10.9909479 C13.8160146,11.8846912 13.9640408,12.9592778 13.9640408,14.2126132 C13.9640408,15.4659485 13.7706292,16.5531034 13.3831077,17.4754744 C12.9962844,18.3971472 12.4614349,19.1526396 11.7792574,19.7426498 C11.0970799,20.33266 10.2955039,20.7704546 9.37383108,21.0560335 C8.4521583,21.3416124 7.46624772,21.484751 6.41470288,21.484751 L6.41470288,21.484751 Z M6.41470288,17.6961173 C6.74706366,17.6961173 7.05079674,17.6458442 7.32729857,17.5439016 C7.6038004,17.4433555 7.84329568,17.2583227 8.04648263,16.990898 C8.24897135,16.7241715 8.41026408,16.3645794 8.53036084,15.9121219 C8.64975936,15.4610608 8.70980774,14.8857136 8.70980774,14.1839854 C8.70980774,13.0235156 8.53943792,12.1981995 8.19869829,11.7101319 C7.85726042,11.2220643 7.35522805,10.9762849 6.69190295,10.9762849 C6.24922072,10.9762849 5.88474103,11.0733398 5.59916212,11.2667515 C5.3135832,11.4601631 4.81783497,11.6312311 4.68935937,11.7785591 L4.68935937,17.5027057 C4.81783497,17.5397122 5.2814643,17.5809082 5.50280542,17.6262936 C5.72414653,17.6737737 6.0278796,17.6961173 6.41470288,17.6961173 Z M18.4432308,21.484751 C17.8532206,21.484751 17.300217,21.4016608 16.7842198,21.2354804 C16.2682227,21.0693 15.8164634,20.8207277 15.4289419,20.4890651 C15.0421187,20.1567043 14.7383856,19.7426498 14.5163462,19.2448069 C14.2957033,18.7469639 14.1853819,18.1660308 14.1853819,17.5027057 C14.1853819,16.6368918 14.382983,15.8897783 14.7795816,15.2627615 C15.1754819,14.636443 15.7054438,14.1246353 16.3694671,13.7280367 C17.0327922,13.3314381 17.8029476,13.0416698 18.6785367,12.8573352 C19.5534276,12.6730007 20.4709109,12.5808334 21.4295903,12.5808334 L21.8171118,12.5808334 L21.8171118,12.1653824 C21.8171118,11.7785591 21.697015,11.4839031 21.4575198,11.2807162 C21.2173263,11.0789257 20.7285604,10.9762849 19.9919204,10.9762849 C19.5862447,10.9762849 19.2036109,11.0223685 18.8447171,11.115234 C18.4851251,11.2074013 18.1576519,11.3135333 17.8622977,11.4329318 C17.5676417,11.5530286 17.3141817,11.6822024 17.1019177,11.8204534 C16.8896536,11.958006 16.7192838,12.0648363 16.5908082,12.1381512 L14.5994364,9.20765068 C14.8207775,9.00446373 15.1154335,8.78801027 15.4848009,8.55689384 C15.8527718,8.32647565 16.2905663,8.11072043 16.7974863,7.90753348 C17.3044064,7.70504476 17.8762624,7.53397671 18.5123563,7.39572579 C19.1484502,7.25747488 19.8536695,7.18834942 20.6280143,7.18834942 C22.7848682,7.18834942 24.3468243,7.59891275 25.3145807,8.41934116 C26.2830353,9.23976958 26.5867684,10.6446223 26.5867684,12.6359941 L26.5867684,16.4246278 C26.5867684,17.5306351 26.6321538,18.4662727 26.7243211,19.2308421 C26.8171866,19.9961098 27.0985761,20.9610733 27.2088975,21.4763722 L22.342186,21.4763722 C22.2681729,21.31089 22.2081245,20.774644 22.1627391,20.5162964 C22.1159572,20.2586469 22.0838383,20.0282287 22.0656841,19.8250418 C21.9176579,20.0100746 21.7340216,20.1985985 21.5126805,20.3920102 C21.2913394,20.58612 21.0288023,20.7655669 20.724371,20.9317473 C20.4199397,21.0972295 20.0792,21.231291 19.7014538,21.3325353 C19.3237076,21.4337797 18.9040672,21.484751 18.4432308,21.484751 Z M59.1616169,10.6695908 C58.9368859,10.7025608 58.7574443,10.735487 58.6295604,10.7758909 C58.3767986,10.8554899 58.2839331,11.0712451 58.2839331,11.2737338 C58.2839331,11.4399142 58.3614374,11.5690881 58.5178424,11.6612553 C58.6742475,11.7534226 58.8872098,11.8407022 59.1546345,11.9237924 C59.4213611,12.0061844 59.7355677,12.0990499 60.0944615,12.199596 C60.4540535,12.3015386 60.8276103,12.4258248 61.2144336,12.5731528 C61.7304307,12.7763397 62.1961547,12.9976809 62.6109075,13.2371761 C63.0256602,13.4766714 63.3803646,13.7587591 63.6750206,14.0799481 C63.9703748,14.4032318 64.1910177,14.7760904 64.3383457,15.1999202 C64.4863719,15.6244483 64.560385,16.1222912 64.560385,16.6941473 C64.560385,18.2791452 64.0485773,19.4493903 63.0256602,20.2048827 C62.0027431,20.9610733 60.5685644,21.3388195 58.7259171,21.3388195 C57.3434079,21.3388195 56.2394953,21.1698461 55.3939303,20.8961373 C54.3647291,20.5637765 53.6755692,20.0687265 52.9850128,19.6777138 L55.1495474,16.7576868 C55.278023,16.8505524 55.3338819,16.8687065 55.5733772,16.9971821 C55.8128725,17.1270542 56.0802972,17.2506421 56.3756515,17.3707389 C56.6703075,17.4908356 56.9880053,17.59208 57.3294432,17.6751702 C57.6701828,17.7575622 58.0158101,17.7994564 58.366325,17.7994564 C59.583352,17.7994564 60.1915164,17.5690382 60.1915164,17.1082018 C60.1915164,16.9420214 60.0853844,16.8093564 59.8731204,16.7074138 C59.6608563,16.6061694 59.3759757,16.4993392 59.0156854,16.3890177 C58.6567916,16.2786963 58.2511159,16.1544101 57.7993566,16.0161592 C57.3475973,15.8779083 56.8825715,15.679609 56.4028827,15.4212613 C55.5545248,14.9792773 54.9282063,14.4583926 54.5225306,13.8593053 C54.2593321,13.4710761 54.0816609,13.0102517 53.9893263,12.4777853 L42.4025336,28 L41.5828034,28 L47.9084314,19.5476323 L45.4391661,15.6775143 L45.4391661,21.4240044 L40.5515074,21.4240044 L40.5515074,3.26984364 L45.4391661,3.26984364 L45.4391661,12.3315628 L49.4309868,7.45926535 L53.5882896,7.45926535 L48.7348445,13.8118251 L50.1922977,16.4959071 L53.9144357,11.5223489 C53.9179683,10.8144895 54.0561961,10.183484 54.329119,9.62798933 C54.6056208,9.06660682 54.9931423,8.59669335 55.490287,8.21824892 C55.9179353,7.89376404 56.4202903,7.60585969 56.9977945,7.40233385 L62.5375926,0 L63.3035585,0 L57.9679267,7.14786431 C58.3486777,7.07650524 58.7465112,7.03208192 59.1616169,7.01431001 L59.1616169,7.00541134 L65.3095933,7.00541134 L65.3095933,3.344555 L70.1637366,3.344555 L70.1637366,7.00541134 L73.2157303,7.00541134 L73.2157303,10.664173 L70.1637366,10.664173 L70.1637366,15.476422 C70.1637366,16.1404454 70.2510162,16.6152465 70.4269719,16.9008254 C70.6015311,17.1871026 70.9101519,17.3295429 71.3528341,17.3295429 C71.7585098,17.3295429 72.1139124,17.2785716 72.4176454,17.1773272 C72.7213785,17.0753847 72.9469091,16.988105 73.0949353,16.9147902 L74.0626917,20.5924042 C73.7121768,20.7578863 73.2199197,20.9240667 72.5838258,21.0902471 C71.947732,21.2564275 71.1594225,21.3388195 70.2195955,21.3388195 C69.2420638,21.3388195 68.4314107,21.2236104 67.7862397,20.9931922 C67.1403706,20.762774 66.6292611,20.4401885 66.2515149,20.0254358 C65.8737687,19.610683 65.6056457,19.1128401 65.4492407,18.5319069 C65.2928356,17.9509738 65.2146331,17.3016134 65.2146331,16.5824294 L65.2146331,10.676043 L59.1616169,10.676043 L59.1616169,10.6695908 Z M20.1574026,18.0836388 C20.5812324,18.0836388 20.9226703,18.0138151 21.1810179,17.8762624 C21.4386674,17.7380115 21.6509314,17.5955712 21.8171118,17.4475449 L21.8171118,15.4561732 L21.4295903,15.4561732 C20.6370913,15.4561732 20.0009975,15.5860452 19.5213087,15.8436947 C19.0423181,16.1020423 18.8028229,16.4979427 18.8028229,17.0327922 C18.8028229,17.7331239 19.2538839,18.0836388 20.1574026,18.0836388 Z M35.2553802,21.484751 C34.0935139,21.484751 33.0433655,21.3276477 32.1028403,21.0141393 C31.1630134,20.7013291 30.3558515,20.2446822 29.6834493,19.6455949 C29.0103489,19.0472058 28.4894641,18.3042817 28.120795,17.4196155 C27.7521259,16.5349493 27.6760181,15.5211092 27.6760181,14.3780953 C27.6760181,13.2350814 27.7570135,12.2170519 28.1347597,11.3226104 C28.5125059,10.4281689 29.0424678,9.67756415 29.7253435,9.06870153 C30.4068228,8.46053714 31.2272512,7.99551133 32.1859305,7.67292586 C33.1446099,7.35034039 34.2045336,7.18834942 35.3657016,7.18834942 C36.4717089,7.18834942 37.3654522,7.29029201 38.048328,7.49347897 C38.7298072,7.69596768 39.2269519,7.8984564 39.5411586,8.10164335 L38.1865789,11.3917359 C37.9100771,11.2444079 37.5595621,11.115234 37.1357323,11.0042144 C36.7112042,10.8938929 36.2042842,10.8387322 35.6149722,10.8387322 C34.7477619,10.8387322 34.0662826,11.1250094 33.5684397,11.6954689 C33.0705967,12.2680232 32.8220244,13.1066058 32.8220244,14.2126132 C32.8220244,15.3367746 33.0615197,16.2123638 33.5405102,16.8393806 C34.020199,17.4656991 34.7477619,17.7792075 35.7252936,17.7792075 C36.4444777,17.7792075 37.0065584,17.701005 37.4122341,17.5439016 C37.8172115,17.3874966 38.1307199,17.2632104 38.3527593,17.1703449 L39.7066407,20.3780454 C39.5411586,20.4709109 39.3337822,20.5812324 39.0852098,20.709708 C38.8359393,20.8395801 38.5363956,20.9589786 38.1865789,21.0693 C37.8360639,21.1796215 37.4213112,21.2766764 36.9423206,21.3597666 C36.4626319,21.4428568 35.9005511,21.484751 35.2553802,21.484751 Z M78.6019301,21.3388195 C78.0119199,21.3388195 77.4589162,21.2564275 76.9429191,21.0902471 C76.426922,20.9240667 75.9751627,20.6754944 75.5883394,20.3431336 C75.2008179,20.011471 74.8963866,19.5967183 74.6757437,19.0988753 C74.4544026,18.6017306 74.343383,18.0207975 74.343383,17.3574724 C74.343383,16.4909603 74.5416823,15.7438468 74.9382808,15.1175282 C75.3341812,14.4905115 75.864143,13.979402 76.5281664,13.5821052 C77.1921897,13.1862048 77.9616468,12.8964365 78.837236,12.7114037 C79.7128251,12.5270692 80.6296102,12.4356001 81.5889878,12.4356001 L81.9758111,12.4356001 L81.9758111,12.0201491 C81.9758111,11.6333259 81.8550161,11.3386699 81.616219,11.1354829 C81.3767238,10.9329942 80.8879579,10.8310516 80.1506197,10.8310516 C79.744944,10.8310516 79.3630084,10.8778335 79.0027181,10.9693025 C78.6438243,11.062168 78.3163512,11.1676018 78.0216952,11.2870003 C77.726341,11.4070971 77.472881,11.5362709 77.2613152,11.6745218 C77.0483529,11.8127727 76.8779831,11.919603 76.7495075,11.9922196 L74.7581357,9.06171916 C74.9801751,8.85853221 75.2741328,8.64277699 75.6435002,8.41166056 C76.0121693,8.18124236 76.4492656,7.96548714 76.9568839,7.76230019 C77.4638039,7.55911324 78.03566,7.38804519 78.6717538,7.25049251 C79.3071494,7.11224159 80.0123688,7.04311613 80.7867135,7.04311613 C82.9435675,7.04311613 84.5055236,7.45367946 85.4739782,8.27340964 C86.4417346,9.0945363 86.9256128,10.4986908 86.9256128,12.4900626 L86.9256128,16.2786963 C86.9256128,17.3847036 86.9709982,18.3203411 87.0631655,19.0849106 C87.1553328,19.8501783 87.2572754,20.7788334 87.3675968,21.2948306 L82.5008853,21.2948306 C82.4275704,21.1286502 82.367522,20.6294107 82.3207401,20.3710631 C82.2753547,20.1127154 82.2425376,19.8829954 82.2243834,19.6798085 C82.0770554,19.864143 81.8927209,20.0533653 81.672078,20.2467769 C81.4500387,20.4401885 81.1875016,20.6203337 80.8837685,20.7858158 C80.5793372,20.951298 80.2378993,21.0853595 79.8601531,21.1866038 C79.4824069,21.2878482 79.0627665,21.3388195 78.6019301,21.3388195 Z M80.3161018,17.9377073 C80.7406299,17.9377073 81.0813695,17.8678836 81.3397172,17.7303309 C81.5973666,17.59208 81.8096307,17.4496397 81.9758111,17.3016134 L81.9758111,15.3109399 L81.5889878,15.3109399 C80.7957906,15.3109399 80.160395,15.4401137 79.6807062,15.6984614 C79.2003192,15.9561108 78.9615222,16.3520112 78.9615222,16.8868607 C78.9615222,17.5878906 79.4125832,17.9377073 80.3161018,17.9377073 L80.3161018,17.9377073 Z M94.3073739,13.8725718 C94.8603775,13.8725718 95.3030598,13.7210543 95.6354206,13.416623 C95.9670831,13.1121917 96.1325653,12.6283135 96.1325653,11.9649884 C96.1325653,11.3009651 95.9670831,10.91484 95.6354206,10.6006334 C95.3030598,10.2878232 94.8603775,10.1307199 94.3073739,10.1307199 C93.7543702,10.1307199 93.3165756,10.2878232 92.9939902,10.6006334 C92.6714047,10.91484 92.5108102,11.3009651 92.5108102,11.9649884 C92.5108102,12.6283135 92.6714047,13.1121917 92.9939902,13.416623 C93.3165756,13.7210543 93.7543702,13.8725718 94.3073739,13.8725718 L94.3073739,13.8725718 Z M94.2242837,24.519987 C95.2018154,24.519987 95.9154136,24.375452 96.3671729,24.0905713 C96.8196304,23.8035959 97.045161,23.4775193 97.045161,23.1081519 C97.045161,22.8882073 96.9900002,22.7171392 96.8796788,22.5970425 C96.7686591,22.4776439 96.5934017,22.3896661 96.3539064,22.3345054 C96.1137129,22.2793447 95.7960151,22.2423381 95.4001147,22.2248822 C95.0028179,22.2046333 94.5196379,22.1690232 93.9484801,22.112466 C93.4869455,22.0761577 93.0638139,22.0202987 92.6762924,21.9476821 C92.5282661,22.0950101 92.4137553,22.2556046 92.3306651,22.4308621 C92.2475749,22.6061195 92.2063789,22.822573 92.2063789,23.0816189 C92.2063789,23.5417571 92.3578963,23.8971597 92.6623276,24.145732 C92.9667589,24.3950026 93.4869455,24.519987 94.2242837,24.519987 L94.2242837,24.519987 Z M107.852473,7.04866997 L107.852473,7.00052368 L94.2801426,7.00052368 C92.1966036,7.00052368 90.5927533,7.44739533 89.46929,8.34183686 C88.3437321,9.2362784 87.7823496,10.4721578 87.7823496,11.9649884 C87.7823496,12.8678088 87.9890277,13.6519289 88.4037805,14.3145557 C88.8192314,14.9792773 89.4134311,15.5232039 90.1877759,15.9463355 C89.763946,16.2046832 89.389691,16.5600858 89.0678038,17.0118451 C88.7445201,17.4636044 88.5839256,18.0759582 88.5839256,18.8496047 C88.5839256,19.7349692 88.9714471,20.4359991 89.7450936,20.951298 C89.0817685,21.3206653 88.5378419,21.7577617 88.1140121,22.2653799 C87.6894841,22.7722999 87.4779183,23.4035061 87.4779183,24.1596968 C87.4779183,26.4813346 89.6159198,27.6438992 93.8926211,27.6438992 C95.2018154,27.6438992 96.3580958,27.5098377 97.3628588,27.2424129 C98.3676218,26.9756864 99.211092,26.606319 99.8932695,26.1364056 C100.575447,25.6657939 101.091444,25.1134884 101.441959,24.4780928 C101.791776,23.8413007 101.967731,23.1542356 101.967731,22.4175956 C101.967731,21.4589162 101.787586,20.7034239 101.427994,20.1504202 C101.068402,19.5967183 100.602678,19.1819655 100.032219,18.9061619 C99.4596643,18.6289619 98.8291564,18.4488167 98.1379018,18.3664248 C97.445949,18.2833346 96.7595821,18.2232862 96.0774046,18.1862796 C95.4140794,18.1492731 94.8652652,18.1178524 94.4323583,18.0899229 C93.9987531,18.0619935 93.6531259,18.0166081 93.3954764,17.9509738 C93.1371287,17.8874342 92.9576819,17.8036458 92.8557393,17.7030997 C92.7544949,17.6011571 92.7035236,17.4677938 92.7035236,17.3016134 C92.7035236,17.1731378 92.7272637,17.0670058 92.7726491,16.9839156 C92.8187327,16.9008254 92.8704022,16.8226229 92.925563,16.7486098 C93.1832124,16.7856163 93.4548266,16.8135458 93.7411037,16.8317 C94.0266826,16.8498541 94.3171492,16.8589312 94.6118052,16.8589312 C96.7134984,16.8589312 98.2761527,16.4169472 99.2990698,15.5315828 C100.321987,14.6469165 100.833795,13.4585172 100.833795,11.9649884 C100.833795,11.4301389 100.750704,11.1487494 100.585222,10.6509065 L102.442568,10.6509065 C102.343604,10.8443924 102.251195,11.0407141 102.165333,11.2367273 C101.777811,12.1220917 101.584399,13.0249121 101.584399,14.1497718 C101.584399,16.4351014 102.2575,18.205132 103.603701,19.4584674 C104.948505,20.7118027 106.829555,21.3388195 109.244059,21.3388195 C110.000249,21.3388195 110.654497,21.2969253 111.207501,21.2145333 C111.760505,21.1314431 112.244383,21.0295005 112.659136,20.9108002 C113.073888,20.7907035 113.438368,20.656642 113.751877,20.509314 C114.064687,20.361986 114.350266,20.214658 114.608613,20.06733 L113.143014,17.0802723 C112.958679,17.1542854 112.765268,17.232488 112.562779,17.3155782 C112.359592,17.3979701 112.129174,17.4775691 111.871524,17.5501858 C111.613177,17.6248971 111.313633,17.6842473 110.972893,17.7303309 C110.631456,17.7764146 110.229969,17.7994564 109.769831,17.7994564 C108.147827,17.7994564 107.198224,16.7262662 106.921723,15.3612129 L115.078527,15.3612129 C115.133687,14.8082093 115.162315,14.6846213 115.162315,14.2042343 C115.162315,11.8644423 114.631655,10.0420438 113.571731,8.82571507 C112.511808,7.60868806 110.912147,7.00052368 108.774145,7.00052368 C108.461312,7.00052368 108.154065,7.0165648 107.852473,7.04866997 Z M110.350066,12.6373906 C110.331214,12.0103738 110.202738,11.5090397 109.963243,11.1124411 C109.723049,10.7158425 109.308995,10.6704571 108.718985,10.6704571 C107.631131,10.6704571 106.976883,11.2178749 106.755542,12.6373906 L110.350066,12.6373906 L110.350066,12.6373906 Z" id="Backstage"></path>
            </g>
        </g>
    </g>
</svg>
